REM DIRINDEX 1\2\6,1\2\7,1\2\8,1\2\9,1\3\10,1\3\11,1\4\12,1\4\13,1\4\14,1\5\15,1\5\16,1\5\17
REM DIRNAME folder01,folder02,folder03,folder04,folder05,folder06,folder07,folder08,folder09,folder10,folder11,folder12,folder13,folder14,folder15,folder16,folder17
TITLE ""
FILE "1900_2_sec19_1876_1900.mp3" MP3
  TRACK 01 AUDIO
    TITLE "0:"
    INDEX 01 00:00:00
  TRACK 02 AUDIO
    TITLE "13:cjc020_5915"
    INDEX 01 00:00:17
  TRACK 03 AUDIO
    TITLE "0:"
    INDEX 01 00:01:42
  TRACK 04 AUDIO
    TITLE "14:cjc020_5916"
    INDEX 01 00:01:46
  TRACK 05 AUDIO
    TITLE "0:"
    INDEX 01 00:04:17
  TRACK 06 AUDIO
    TITLE "13:cjc020_5917"
    INDEX 01 00:04:72
  TRACK 07 AUDIO
    TITLE "0:"
    INDEX 01 00:06:04
  TRACK 08 AUDIO
    TITLE "14:cjc020_5918"
    INDEX 01 00:06:06
  TRACK 09 AUDIO
    TITLE "0:"
    INDEX 01 00:07:27
  TRACK 10 AUDIO
    TITLE "13:cjc020_5919"
    INDEX 01 00:08:05
  TRACK 11 AUDIO
    TITLE "0:"
    INDEX 01 00:09:42
  TRACK 12 AUDIO
    TITLE "14:cjc020_5920"
    INDEX 01 00:09:44
  TRACK 13 AUDIO
    TITLE "0:"
    INDEX 01 00:10:70
  TRACK 14 AUDIO
    TITLE "13:cjc020_5921"
    INDEX 01 00:11:46
  TRACK 15 AUDIO
    TITLE "0:"
    INDEX 01 00:12:69
  TRACK 16 AUDIO
    TITLE "14:cjc020_5922"
    INDEX 01 00:12:71
  TRACK 17 AUDIO
    TITLE "0:"
    INDEX 01 00:14:19
  TRACK 18 AUDIO
    TITLE "13:cjc020_5923"
    INDEX 01 00:14:70
  TRACK 19 AUDIO
    TITLE "0:"
    INDEX 01 00:16:14
  TRACK 20 AUDIO
    TITLE "14:cjc020_5924"
    INDEX 01 00:16:16
  TRACK 21 AUDIO
    TITLE "0:"
    INDEX 01 00:17:43
  TRACK 22 AUDIO
    TITLE "13:cjc020_5925"
    INDEX 01 00:18:21
  TRACK 23 AUDIO
    TITLE "0:"
    INDEX 01 00:19:34
  TRACK 24 AUDIO
    TITLE "14:cjc020_5926"
    INDEX 01 00:19:36
  TRACK 25 AUDIO
    TITLE "0:"
    INDEX 01 00:22:36
  TRACK 26 AUDIO
    TITLE "13:cjc020_5927"
    INDEX 01 00:23:12
  TRACK 27 AUDIO
    TITLE "0:"
    INDEX 01 00:24:10
  TRACK 28 AUDIO
    TITLE "14:cjc020_5928"
    INDEX 01 00:24:16
  TRACK 29 AUDIO
    TITLE "0:"
    INDEX 01 00:25:54
  TRACK 30 AUDIO
    TITLE "13:cjc020_5929"
    INDEX 01 00:26:26
  TRACK 31 AUDIO
    TITLE "0:"
    INDEX 01 00:27:34
  TRACK 32 AUDIO
    TITLE "14:cjc020_5930"
    INDEX 01 00:27:41
  TRACK 33 AUDIO
    TITLE "0:"
    INDEX 01 00:29:09
  TRACK 34 AUDIO
    TITLE "13:cjc020_5931"
    INDEX 01 00:29:64
  TRACK 35 AUDIO
    TITLE "0:"
    INDEX 01 00:31:08
  TRACK 36 AUDIO
    TITLE "14:cjc020_5932"
    INDEX 01 00:31:12
  TRACK 37 AUDIO
    TITLE "0:"
    INDEX 01 00:32:35
  TRACK 38 AUDIO
    TITLE "13:cjc020_5933"
    INDEX 01 00:33:15
  TRACK 39 AUDIO
    TITLE "0:"
    INDEX 01 00:34:32
  TRACK 40 AUDIO
    TITLE "14:cjc020_5934"
    INDEX 01 00:34:36
  TRACK 41 AUDIO
    TITLE "0:"
    INDEX 01 00:36:42
  TRACK 42 AUDIO
    TITLE "13:cjc020_5935"
    INDEX 01 00:37:22
  TRACK 43 AUDIO
    TITLE "0:"
    INDEX 01 00:38:33
  TRACK 44 AUDIO
    TITLE "14:cjc020_5936"
    INDEX 01 00:38:35
  TRACK 45 AUDIO
    TITLE "0:"
    INDEX 01 00:39:56
  TRACK 46 AUDIO
    TITLE "13:cjc020_5937"
    INDEX 01 00:40:36
  TRACK 47 AUDIO
    TITLE "0:"
    INDEX 01 00:41:51
  TRACK 48 AUDIO
    TITLE "14:cjc020_5938"
    INDEX 01 00:41:53
  TRACK 49 AUDIO
    TITLE "0:"
    INDEX 01 00:44:01
  TRACK 50 AUDIO
    TITLE "13:cjc020_5939"
    INDEX 01 00:44:56
  TRACK 51 AUDIO
    TITLE "0:"
    INDEX 01 00:45:57
  TRACK 52 AUDIO
    TITLE "14:cjc020_5940"
    INDEX 01 00:45:59
  TRACK 53 AUDIO
    TITLE "0:"
    INDEX 01 00:50:35
  TRACK 54 AUDIO
    TITLE "13:cjc020_5941"
    INDEX 01 00:51:13
  TRACK 55 AUDIO
    TITLE "0:"
    INDEX 01 00:52:26
  TRACK 56 AUDIO
    TITLE "14:cjc020_5942"
    INDEX 01 00:52:30
  TRACK 57 AUDIO
    TITLE "0:"
    INDEX 01 00:53:41
  TRACK 58 AUDIO
    TITLE "13:cjc020_5943"
    INDEX 01 00:54:21
  TRACK 59 AUDIO
    TITLE "0:"
    INDEX 01 00:55:18
  TRACK 60 AUDIO
    TITLE "14:cjc020_5944"
    INDEX 01 00:55:20
  TRACK 61 AUDIO
    TITLE "0:"
    INDEX 01 00:57:72
  TRACK 62 AUDIO
    TITLE "13:cjc020_5945"
    INDEX 01 00:58:50
  TRACK 63 AUDIO
    TITLE "0:"
    INDEX 01 00:59:67
  TRACK 64 AUDIO
    TITLE "14:cjc020_5946"
    INDEX 01 00:59:69
  TRACK 65 AUDIO
    TITLE "0:"
    INDEX 01 01:02:54
  TRACK 66 AUDIO
    TITLE "13:cjc020_5947"
    INDEX 01 01:03:31
  TRACK 67 AUDIO
    TITLE "0:"
    INDEX 01 01:04:54
  TRACK 68 AUDIO
    TITLE "14:cjc020_5948"
    INDEX 01 01:04:56
  TRACK 69 AUDIO
    TITLE "0:"
    INDEX 01 01:07:19
  TRACK 70 AUDIO
    TITLE "13:cjc020_5949"
    INDEX 01 01:08:01
  TRACK 71 AUDIO
    TITLE "0:"
    INDEX 01 01:09:05
  TRACK 72 AUDIO
    TITLE "14:cjc020_5950"
    INDEX 01 01:09:07
  TRACK 73 AUDIO
    TITLE "0:"
    INDEX 01 01:11:64
  TRACK 74 AUDIO
    TITLE "13:cjc020_5951"
    INDEX 01 01:12:42
  TRACK 75 AUDIO
    TITLE "0:"
    INDEX 01 01:13:57
  TRACK 76 AUDIO
    TITLE "14:cjc020_5952"
    INDEX 01 01:13:59
  TRACK 77 AUDIO
    TITLE "0:"
    INDEX 01 01:15:29
  TRACK 78 AUDIO
    TITLE "13:cjc020_5953"
    INDEX 01 01:16:07
  TRACK 79 AUDIO
    TITLE "0:"
    INDEX 01 01:17:22
  TRACK 80 AUDIO
    TITLE "14:cjc020_5954"
    INDEX 01 01:17:24
  TRACK 81 AUDIO
    TITLE "0:"
    INDEX 01 01:18:43
  TRACK 82 AUDIO
    TITLE "13:cjc020_5955"
    INDEX 01 01:19:23
  TRACK 83 AUDIO
    TITLE "0:"
    INDEX 01 01:20:34
  TRACK 84 AUDIO
    TITLE "14:cjc020_5956"
    INDEX 01 01:20:38
  TRACK 85 AUDIO
    TITLE "0:"
    INDEX 01 01:24:47
  TRACK 86 AUDIO
    TITLE "13:cjc020_5957"
    INDEX 01 01:25:23
  TRACK 87 AUDIO
    TITLE "0:"
    INDEX 01 01:26:48
  TRACK 88 AUDIO
    TITLE "14:cjc020_5958"
    INDEX 01 01:26:50
  TRACK 89 AUDIO
    TITLE "0:"
    INDEX 01 01:28:29
  TRACK 90 AUDIO
    TITLE "13:cjc020_5959"
    INDEX 01 01:29:07
  TRACK 91 AUDIO
    TITLE "0:"
    INDEX 01 01:30:15
  TRACK 92 AUDIO
    TITLE "14:cjc020_5960"
    INDEX 01 01:30:17
  TRACK 93 AUDIO
    TITLE "0:"
    INDEX 01 01:32:51
  TRACK 94 AUDIO
    TITLE "13:cjc020_5961"
    INDEX 01 01:33:31
  TRACK 95 AUDIO
    TITLE "0:"
    INDEX 01 01:34:34
  TRACK 96 AUDIO
    TITLE "14:cjc020_5962"
    INDEX 01 01:34:38
  TRACK 97 AUDIO
    TITLE "0:"
    INDEX 01 01:37:05
  TRACK 98 AUDIO
    TITLE "13:cjc020_5963"
    INDEX 01 01:37:60
  TRACK 99 AUDIO
    TITLE "0:"
    INDEX 01 01:38:69
  TRACK 100 AUDIO
    TITLE "14:cjc020_5964"
    INDEX 01 01:38:71
  TRACK 101 AUDIO
    TITLE "0:"
    INDEX 01 01:40:17
